# Blender v2.77 (sub 0) OBJ File: ''
# www.blender.org
mtllib untitled.mtl
o Cylinder
v 0.000000 -0.005000 -1.000000
v 0.000000 0.005000 -1.000000
v 0.195090 -0.005000 -0.980785
v 0.195090 0.005000 -0.980785
v 0.382683 -0.005000 -0.923880
v 0.382683 0.005000 -0.923880
v 0.555570 -0.005000 -0.831470
v 0.555570 0.005000 -0.831470
v 0.707107 -0.005000 -0.707107
v 0.707107 0.005000 -0.707107
v 0.831470 -0.005000 -0.555570
v 0.831470 0.005000 -0.555570
v 0.923880 -0.005000 -0.382683
v 0.923880 0.005000 -0.382683
v 0.980785 -0.005000 -0.195090
v 0.980785 0.005000 -0.195090
v 1.000000 -0.005000 -0.000000
v 1.000000 0.005000 -0.000000
v 0.980785 -0.005000 0.195090
v 0.980785 0.005000 0.195090
v 0.923880 -0.005000 0.382683
v 0.923880 0.005000 0.382683
v 0.831470 -0.005000 0.555570
v 0.831470 0.005000 0.555570
v 0.707107 -0.005000 0.707107
v 0.707107 0.005000 0.707107
v 0.555570 -0.005000 0.831470
v 0.555570 0.005000 0.831470
v 0.382683 -0.005000 0.923880
v 0.382683 0.005000 0.923880
v 0.195090 -0.005000 0.980785
v 0.195090 0.005000 0.980785
v -0.000000 -0.005000 1.000000
v -0.000000 0.005000 1.000000
v -0.195091 -0.005000 0.980785
v -0.195091 0.005000 0.980785
v -0.382684 -0.005000 0.923879
v -0.382684 0.005000 0.923879
v -0.555571 -0.005000 0.831469
v -0.555571 0.005000 0.831469
v -0.707107 -0.005000 0.707106
v -0.707107 0.005000 0.707106
v -0.831470 -0.005000 0.555570
v -0.831470 0.005000 0.555570
v -0.923880 -0.005000 0.382683
v -0.923880 0.005000 0.382683
v -0.980785 -0.005000 0.195089
v -0.980785 0.005000 0.195089
v -1.000000 -0.005000 -0.000001
v -1.000000 0.005000 -0.000001
v -0.980785 -0.005000 -0.195091
v -0.980785 0.005000 -0.195091
v -0.923879 -0.005000 -0.382684
v -0.923879 0.005000 -0.382684
v -0.831469 -0.005000 -0.555571
v -0.831469 0.005000 -0.555571
v -0.707106 -0.005000 -0.707108
v -0.707106 0.005000 -0.707108
v -0.555569 -0.005000 -0.831470
v -0.555569 0.005000 -0.831470
v -0.382682 -0.005000 -0.923880
v -0.382682 0.005000 -0.923880
v -0.195089 -0.005000 -0.980786
v -0.195089 0.005000 -0.980786
vt 0.5053 0.1777
vt 0.5028 0.1777
vt 0.5028 0.2267
vt 0.5053 0.2267
vt 0.5028 0.2738
vt 0.5053 0.2738
vt 0.5028 0.3172
vt 0.5053 0.3172
vt 0.5028 0.3552
vt 0.5053 0.3552
vt 0.5028 0.3172
vt 0.5053 0.3172
vt 0.5028 0.2738
vt 0.5053 0.2738
vt 0.5028 0.2267
vt 0.5053 0.2267
vt 0.5028 0.1777
vt 0.5053 0.1777
vt 0.5028 0.1287
vt 0.5053 0.1287
vt 0.5028 0.0816
vt 0.5053 0.0816
vt 0.5028 0.0382
vt 0.5053 0.0382
vt 0.5028 0.0001
vt 0.5053 0.0001
vt 0.5001 0.0001
vt 0.5026 0.0001
vt 0.5026 0.0382
vt 0.5001 0.0382
vt 0.5026 0.0816
vt 0.5001 0.0816
vt 0.5026 0.1287
vt 0.5001 0.1287
vt 0.5026 0.1777
vt 0.5001 0.1777
vt 0.5026 0.2267
vt 0.5001 0.2267
vt 0.5026 0.2738
vt 0.5001 0.2738
vt 0.5026 0.3172
vt 0.5001 0.3172
vt 0.5026 0.3552
vt 0.5001 0.3552
vt 0.5026 0.3172
vt 0.5001 0.3172
vt 0.5026 0.2738
vt 0.5001 0.2738
vt 0.5026 0.2267
vt 0.5001 0.2267
vt 0.5026 0.1777
vt 0.5001 0.1777
vt 0.5026 0.1287
vt 0.5001 0.1287
vt 0.5026 0.0816
vt 0.5001 0.0816
vt 0.5026 0.0382
vt 0.5001 0.0382
vt 0.5026 0.0001
vt 0.5001 0.0001
vt 0.5053 0.0001
vt 0.5028 0.0001
vt 0.5028 0.0382
vt 0.5053 0.0382
vt 0.5028 0.0816
vt 0.5053 0.0816
vt 0.4441 0.5907
vt 0.4715 0.6316
vt 0.4903 0.6771
vt 0.4999 0.7254
vt 0.4999 0.7746
vt 0.4903 0.8229
vt 0.4715 0.8684
vt 0.4441 0.9093
vt 0.4093 0.9441
vt 0.3684 0.9715
vt 0.3229 0.9903
vt 0.2746 0.9999
vt 0.2254 0.9999
vt 0.1771 0.9903
vt 0.1316 0.9715
vt 0.0907 0.9441
vt 0.0559 0.9093
vt 0.0285 0.8684
vt 0.0097 0.8229
vt 0.0001 0.7746
vt 0.0001 0.7254
vt 0.0097 0.6771
vt 0.0285 0.6316
vt 0.0559 0.5907
vt 0.0907 0.5559
vt 0.1316 0.5285
vt 0.1771 0.5097
vt 0.2254 0.5001
vt 0.2746 0.5001
vt 0.3229 0.5097
vt 0.3684 0.5285
vt 0.4093 0.5559
vt 0.5028 0.1287
vt 0.5053 0.1287
vt 0.1316 0.0285
vt 0.0907 0.0559
vt 0.0559 0.0907
vt 0.0285 0.1316
vt 0.0097 0.1771
vt 0.0001 0.2254
vt 0.0001 0.2746
vt 0.0097 0.3229
vt 0.0285 0.3684
vt 0.0559 0.4093
vt 0.0907 0.4441
vt 0.1316 0.4715
vt 0.1771 0.4903
vt 0.2254 0.4999
vt 0.2746 0.4999
vt 0.3229 0.4903
vt 0.3684 0.4715
vt 0.4093 0.4441
vt 0.4441 0.4093
vt 0.4715 0.3684
vt 0.4903 0.3229
vt 0.4999 0.2746
vt 0.4999 0.2254
vt 0.4903 0.1771
vt 0.4715 0.1316
vt 0.4441 0.0907
vt 0.4093 0.0559
vt 0.3684 0.0285
vt 0.3229 0.0097
vt 0.2746 0.0001
vt 0.2254 0.0001
vt 0.1771 0.0097
vn 0.0980 0.0000 -0.9952
vn 0.2903 0.0000 -0.9569
vn 0.4714 0.0000 -0.8819
vn 0.6344 0.0000 -0.7730
vn 0.7730 0.0000 -0.6344
vn 0.8819 0.0000 -0.4714
vn 0.9569 0.0000 -0.2903
vn 0.9952 0.0000 -0.0980
vn 0.9952 0.0000 0.0980
vn 0.9569 0.0000 0.2903
vn 0.8819 0.0000 0.4714
vn 0.7730 0.0000 0.6344
vn 0.6344 0.0000 0.7730
vn 0.4714 0.0000 0.8819
vn 0.2903 0.0000 0.9569
vn 0.0980 0.0000 0.9952
vn -0.0980 0.0000 0.9952
vn -0.2903 0.0000 0.9569
vn -0.4714 0.0000 0.8819
vn -0.6344 0.0000 0.7730
vn -0.7730 0.0000 0.6344
vn -0.8819 0.0000 0.4714
vn -0.9569 0.0000 0.2903
vn -0.9952 0.0000 0.0980
vn -0.9952 0.0000 -0.0980
vn -0.9569 0.0000 -0.2903
vn -0.8819 0.0000 -0.4714
vn -0.7730 0.0000 -0.6344
vn -0.6344 0.0000 -0.7730
vn -0.4714 0.0000 -0.8819
vn 0.0000 1.0000 0.0000
vn -0.2903 0.0000 -0.9569
vn -0.0980 0.0000 -0.9952
vn 0.0000 -1.0000 0.0000
usemtl None
s off
f 1/1/1 2/2/1 4/3/1 3/4/1
f 3/4/2 4/3/2 6/5/2 5/6/2
f 5/6/3 6/5/3 8/7/3 7/8/3
f 7/8/4 8/7/4 10/9/4 9/10/4
f 9/10/5 10/9/5 12/11/5 11/12/5
f 11/12/6 12/11/6 14/13/6 13/14/6
f 13/14/7 14/13/7 16/15/7 15/16/7
f 15/16/8 16/15/8 18/17/8 17/18/8
f 17/18/9 18/17/9 20/19/9 19/20/9
f 19/20/10 20/19/10 22/21/10 21/22/10
f 21/22/11 22/21/11 24/23/11 23/24/11
f 23/24/12 24/23/12 26/25/12 25/26/12
f 25/27/13 26/28/13 28/29/13 27/30/13
f 27/30/14 28/29/14 30/31/14 29/32/14
f 29/32/15 30/31/15 32/33/15 31/34/15
f 31/34/16 32/33/16 34/35/16 33/36/16
f 33/36/17 34/35/17 36/37/17 35/38/17
f 35/38/18 36/37/18 38/39/18 37/40/18
f 37/40/19 38/39/19 40/41/19 39/42/19
f 39/42/20 40/41/20 42/43/20 41/44/20
f 41/44/21 42/43/21 44/45/21 43/46/21
f 43/46/22 44/45/22 46/47/22 45/48/22
f 45/48/23 46/47/23 48/49/23 47/50/23
f 47/50/24 48/49/24 50/51/24 49/52/24
f 49/52/25 50/51/25 52/53/25 51/54/25
f 51/54/26 52/53/26 54/55/26 53/56/26
f 53/56/27 54/55/27 56/57/27 55/58/27
f 55/58/28 56/57/28 58/59/28 57/60/28
f 57/61/29 58/62/29 60/63/29 59/64/29
f 59/64/30 60/63/30 62/65/30 61/66/30
f 4/67/31 2/68/31 64/69/31 62/70/31 60/71/31 58/72/31 56/73/31 54/74/31 52/75/31 50/76/31 48/77/31 46/78/31 44/79/31 42/80/31 40/81/31 38/82/31 36/83/31 34/84/31 32/85/31 30/86/31 28/87/31 26/88/31 24/89/31 22/90/31 20/91/31 18/92/31 16/93/31 14/94/31 12/95/31 10/96/31 8/97/31 6/98/31
f 61/66/32 62/65/32 64/99/32 63/100/32
f 63/100/33 64/99/33 2/2/33 1/1/33
f 1/101/34 3/102/34 5/103/34 7/104/34 9/105/34 11/106/34 13/107/34 15/108/34 17/109/34 19/110/34 21/111/34 23/112/34 25/113/34 27/114/34 29/115/34 31/116/34 33/117/34 35/118/34 37/119/34 39/120/34 41/121/34 43/122/34 45/123/34 47/124/34 49/125/34 51/126/34 53/127/34 55/128/34 57/129/34 59/130/34 61/131/34 63/132/34
