<?xml version="1.0" encoding="UTF-8" standalone="no"?>
<!-- Created with Inkscape (http://www.inkscape.org/) -->

<svg
   xmlns:dc="http://purl.org/dc/elements/1.1/"
   xmlns:cc="http://creativecommons.org/ns#"
   xmlns:rdf="http://www.w3.org/1999/02/22-rdf-syntax-ns#"
   xmlns:svg="http://www.w3.org/2000/svg"
   xmlns="http://www.w3.org/2000/svg"
   xmlns:sodipodi="http://sodipodi.sourceforge.net/DTD/sodipodi-0.dtd"
   xmlns:inkscape="http://www.inkscape.org/namespaces/inkscape"
   id="svg2"
   version="1.1"
   inkscape:version="0.48.4 r"
   width="310.32125"
   height="193.3925"
   xml:space="preserve"
   sodipodi:docname="InterstellarLogo.pdf"><metadata
     id="metadata8"><rdf:RDF><cc:Work
         rdf:about=""><dc:format>image/svg+xml</dc:format><dc:type
           rdf:resource="http://purl.org/dc/dcmitype/StillImage" /><dc:title></dc:title></cc:Work></rdf:RDF></metadata><defs
     id="defs6"><clipPath
       clipPathUnits="userSpaceOnUse"
       id="clipPath26"><path
         d="m 61.675,28.3468 c 0,2.75118 -2.2302,4.98139 -4.98138,4.98139 -2.75119,0 -4.98139,-2.23021 -4.98139,-4.98139 0,-2.75117 2.2302,-4.98138 4.98139,-4.98138 2.75118,0 4.98138,2.23021 4.98138,4.98138 z"
         id="path28" /></clipPath><clipPath
       clipPathUnits="userSpaceOnUse"
       id="clipPath40"><path
         d="M 0,0 100,0 100,100 0,100 0,0 z"
         id="path42" /></clipPath><radialGradient
       fx="40.00052"
       fy="60.00076"
       cx="50.00064"
       cy="50.00064"
       r="50.00064"
       gradientUnits="userSpaceOnUse"
       id="radialGradient44"><stop
         style="stop-opacity:1;stop-color:#fffff4"
         offset="0"
         id="stop46" /><stop
         style="stop-opacity:1;stop-color:#ffffc6"
         offset="9.00009"
         id="stop48" /><stop
         style="stop-opacity:1;stop-color:#b3b37d"
         offset="18.00021"
         id="stop50" /><stop
         style="stop-opacity:1;stop-color:#808059"
         offset="25.00032"
         id="stop52" /><stop
         style="stop-opacity:1;stop-color:#000000"
         offset="50.00064"
         id="stop54" /></radialGradient><clipPath
       clipPathUnits="userSpaceOnUse"
       id="clipPath70"><path
         d="m 58.1837,18.42459 c 3.4e-4,0.82535 -0.66847,1.49469 -1.49382,1.49503 -0.82533,3.3e-4 -1.49468,-0.66846 -1.49501,-1.49381 -3.4e-4,-0.82535 0.66846,-1.49469 1.4938,-1.49502 0.82535,-3.4e-4 1.49469,0.66845 1.49503,1.4938 z"
         id="path72" /></clipPath><clipPath
       clipPathUnits="userSpaceOnUse"
       id="clipPath84"><path
         d="M 0,0 100,0 100,100 0,100 0,0 z"
         id="path86" /></clipPath><radialGradient
       fx="40.00052"
       fy="60.00076"
       cx="50.00064"
       cy="50.00064"
       r="50.00064"
       gradientUnits="userSpaceOnUse"
       id="radialGradient88"><stop
         style="stop-opacity:1;stop-color:#fcf9f6"
         offset="0"
         id="stop90" /><stop
         style="stop-opacity:1;stop-color:#f1e2d4"
         offset="9.00009"
         id="stop92" /><stop
         style="stop-opacity:1;stop-color:#a5988a"
         offset="18.00021"
         id="stop94" /><stop
         style="stop-opacity:1;stop-color:#766c63"
         offset="25.00032"
         id="stop96" /><stop
         style="stop-opacity:1;stop-color:#000000"
         offset="50.00064"
         id="stop98" /></radialGradient><clipPath
       clipPathUnits="userSpaceOnUse"
       id="clipPath114"><path
         d="m 46.99152,17.58968 c 1.33958,0.97492 1.63516,2.85118 0.66023,4.19076 -0.97493,1.33959 -2.8512,1.63518 -4.19078,0.66025 -1.33959,-0.97495 -1.63517,-2.85119 -0.66023,-4.19078 0.97493,-1.33959 2.85119,-1.63518 4.19078,-0.66023 z"
         id="path116" /></clipPath><clipPath
       clipPathUnits="userSpaceOnUse"
       id="clipPath128"><path
         d="M 0,0 100,0 100,100 0,100 0,0 z"
         id="path130" /></clipPath><radialGradient
       fx="40.00052"
       fy="60.00076"
       cx="50.00064"
       cy="50.00064"
       r="50.00064"
       gradientUnits="userSpaceOnUse"
       id="radialGradient132"><stop
         style="stop-opacity:1;stop-color:#f9f4f9"
         offset="0"
         id="stop134" /><stop
         style="stop-opacity:1;stop-color:#e2c6e2"
         offset="9.00009"
         id="stop136" /><stop
         style="stop-opacity:1;stop-color:#987d98"
         offset="18.00021"
         id="stop138" /><stop
         style="stop-opacity:1;stop-color:#6c596c"
         offset="25.00032"
         id="stop140" /><stop
         style="stop-opacity:1;stop-color:#000000"
         offset="50.00064"
         id="stop142" /></radialGradient><clipPath
       clipPathUnits="userSpaceOnUse"
       id="clipPath158"><path
         d="m 78.91623,33.41583 c -1.2292,-0.15373 -2.10101,-1.27479 -1.9473,-2.504 0.15372,-1.2292 1.2748,-2.10103 2.504,-1.94729 1.2292,0.15372 2.10101,1.27479 1.9473,2.50398 -0.15373,1.2292 -1.2748,2.10103 -2.504,1.94731 z"
         id="path160" /></clipPath><clipPath
       clipPathUnits="userSpaceOnUse"
       id="clipPath172"><path
         d="M 0,0 100,0 100,100 0,100 0,0 z"
         id="path174" /></clipPath><radialGradient
       fx="40.00052"
       fy="60.00076"
       cx="50.00064"
       cy="50.00064"
       r="50.00064"
       gradientUnits="userSpaceOnUse"
       id="radialGradient176"><stop
         style="stop-opacity:1;stop-color:#f4f4ff"
         offset="0"
         id="stop178" /><stop
         style="stop-opacity:1;stop-color:#c6c6ff"
         offset="9.00009"
         id="stop180" /><stop
         style="stop-opacity:1;stop-color:#7d7db3"
         offset="18.00021"
         id="stop182" /><stop
         style="stop-opacity:1;stop-color:#595980"
         offset="25.00032"
         id="stop184" /><stop
         style="stop-opacity:1;stop-color:#000000"
         offset="50.00064"
         id="stop186" /></radialGradient><clipPath
       clipPathUnits="userSpaceOnUse"
       id="clipPath202"><path
         d="m 25.84872,48.59407 c 0.78141,-0.56868 1.87589,-0.39624 2.44458,0.38518 0.5687,0.78142 0.39624,1.87588 -0.38517,2.44458 -0.78141,0.56869 -1.87589,0.39624 -2.44458,-0.38516 -0.5687,-0.78142 -0.39625,-1.8759 0.38517,-2.4446 z"
         id="path204" /></clipPath><clipPath
       clipPathUnits="userSpaceOnUse"
       id="clipPath216"><path
         d="M 0,0 100,0 100,100 0,100 0,0 z"
         id="path218" /></clipPath><radialGradient
       fx="40.00052"
       fy="60.00076"
       cx="50.00064"
       cy="50.00064"
       r="50.00064"
       gradientUnits="userSpaceOnUse"
       id="radialGradient220"><stop
         style="stop-opacity:1;stop-color:#fff4f4"
         offset="0"
         id="stop222" /><stop
         style="stop-opacity:1;stop-color:#ffc6c6"
         offset="9.00009"
         id="stop224" /><stop
         style="stop-opacity:1;stop-color:#b37d7d"
         offset="18.00021"
         id="stop226" /><stop
         style="stop-opacity:1;stop-color:#805959"
         offset="25.00032"
         id="stop228" /><stop
         style="stop-opacity:1;stop-color:#000000"
         offset="50.00064"
         id="stop230" /></radialGradient><clipPath
       clipPathUnits="userSpaceOnUse"
       id="clipPath240"><path
         d="m 212.4113,-28.3468 c 0,3.02629 -2.45323,5.47952 -5.47952,5.47952 -3.02628,0 -5.47952,-2.45323 -5.47952,-5.47952 0,-3.0263 2.45324,-5.47952 5.47952,-5.47952 3.02629,0 5.47952,2.45322 5.47952,5.47952 z"
         id="path242" /></clipPath><clipPath
       clipPathUnits="userSpaceOnUse"
       id="clipPath254"><path
         d="M 0,0 100,0 100,100 0,100 0,0 z"
         id="path256" /></clipPath><radialGradient
       fx="40.00052"
       fy="60.00076"
       cx="50.00064"
       cy="50.00064"
       r="50.00064"
       gradientUnits="userSpaceOnUse"
       id="radialGradient258"><stop
         style="stop-opacity:1;stop-color:#fffff4"
         offset="0"
         id="stop260" /><stop
         style="stop-opacity:1;stop-color:#ffffc6"
         offset="9.00009"
         id="stop262" /><stop
         style="stop-opacity:1;stop-color:#b3b37d"
         offset="18.00021"
         id="stop264" /><stop
         style="stop-opacity:1;stop-color:#808059"
         offset="25.00032"
         id="stop266" /><stop
         style="stop-opacity:1;stop-color:#000000"
         offset="50.00064"
         id="stop268" /></radialGradient><clipPath
       clipPathUnits="userSpaceOnUse"
       id="clipPath284"><path
         d="m 205.74654,-38.44029 c 0.34071,1.04809 -0.23273,2.17396 -1.28084,2.51468 -1.0481,0.34073 -2.17395,-0.23273 -2.51468,-1.28083 -0.34072,-1.04811 0.23273,-2.17396 1.28084,-2.51468 1.04809,-0.34072 2.17394,0.23273 2.51468,1.28083 z"
         id="path286" /></clipPath><clipPath
       clipPathUnits="userSpaceOnUse"
       id="clipPath298"><path
         d="M 0,0 100,0 100,100 0,100 0,0 z"
         id="path300" /></clipPath><radialGradient
       fx="40.00052"
       fy="60.00076"
       cx="50.00064"
       cy="50.00064"
       r="50.00064"
       gradientUnits="userSpaceOnUse"
       id="radialGradient302"><stop
         style="stop-opacity:1;stop-color:#f4fff4"
         offset="0"
         id="stop304" /><stop
         style="stop-opacity:1;stop-color:#c6ffc6"
         offset="9.00009"
         id="stop306" /><stop
         style="stop-opacity:1;stop-color:#7db37d"
         offset="18.00021"
         id="stop308" /><stop
         style="stop-opacity:1;stop-color:#598059"
         offset="25.00032"
         id="stop310" /><stop
         style="stop-opacity:1;stop-color:#000000"
         offset="50.00064"
         id="stop312" /></radialGradient><clipPath
       clipPathUnits="userSpaceOnUse"
       id="clipPath328"><path
         d="m 220.08743,-15.94562 c -1.02699,-0.74746 -1.2536,-2.18596 -0.50615,-3.21295 0.74747,-1.02701 2.18596,-1.25362 3.21297,-0.50615 1.02699,0.74747 1.25362,2.18594 0.50615,3.21295 -0.74747,1.027 -2.18596,1.25362 -3.21297,0.50615 z"
         id="path330" /></clipPath><clipPath
       clipPathUnits="userSpaceOnUse"
       id="clipPath342"><path
         d="M 0,0 100,0 100,100 0,100 0,0 z"
         id="path344" /></clipPath><radialGradient
       fx="40.00052"
       fy="60.00076"
       cx="50.00064"
       cy="50.00064"
       r="50.00064"
       gradientUnits="userSpaceOnUse"
       id="radialGradient346"><stop
         style="stop-opacity:1;stop-color:#f9f9f9"
         offset="0"
         id="stop348" /><stop
         style="stop-opacity:1;stop-color:#e2e2e2"
         offset="9.00009"
         id="stop350" /><stop
         style="stop-opacity:1;stop-color:#989898"
         offset="18.00021"
         id="stop352" /><stop
         style="stop-opacity:1;stop-color:#6c6c6c"
         offset="25.00032"
         id="stop354" /><stop
         style="stop-opacity:1;stop-color:#000000"
         offset="50.00064"
         id="stop356" /></radialGradient><clipPath
       clipPathUnits="userSpaceOnUse"
       id="clipPath372"><path
         d="m 243.13997,-49.70981 c -1.78612,1.2999 -4.28775,0.90573 -5.58765,-0.88037 -1.29989,-1.78612 -0.90573,-4.28775 0.88039,-5.58765 1.7861,-1.29989 4.28773,-0.90573 5.58763,0.88039 1.2999,1.7861 0.90573,4.28774 -0.88037,5.58763 z"
         id="path374" /></clipPath><clipPath
       clipPathUnits="userSpaceOnUse"
       id="clipPath386"><path
         d="M 0,0 100,0 100,100 0,100 0,0 z"
         id="path388" /></clipPath><radialGradient
       fx="40.00052"
       fy="60.00076"
       cx="50.00064"
       cy="50.00064"
       r="50.00064"
       gradientUnits="userSpaceOnUse"
       id="radialGradient390"><stop
         style="stop-opacity:1;stop-color:#fcf4f6"
         offset="0"
         id="stop392" /><stop
         style="stop-opacity:1;stop-color:#f1c6d4"
         offset="9.00009"
         id="stop394" /><stop
         style="stop-opacity:1;stop-color:#a57d8a"
         offset="18.00021"
         id="stop396" /><stop
         style="stop-opacity:1;stop-color:#765963"
         offset="25.00032"
         id="stop398" /><stop
         style="stop-opacity:1;stop-color:#000000"
         offset="50.00064"
         id="stop400" /></radialGradient><clipPath
       clipPathUnits="userSpaceOnUse"
       id="clipPath416"><path
         d="m 212.96906,32.15088 c -0.1093,-0.8741 0.51064,-1.6713 1.38474,-1.78061 0.8741,-0.1093 1.6713,0.51065 1.78061,1.38475 0.1093,0.8741 -0.51065,1.67131 -1.38475,1.78061 -0.8741,0.1093 -1.67131,-0.51065 -1.7806,-1.38475 z"
         id="path418" /></clipPath><clipPath
       clipPathUnits="userSpaceOnUse"
       id="clipPath430"><path
         d="M 0,0 100,0 100,100 0,100 0,0 z"
         id="path432" /></clipPath><radialGradient
       fx="40.00052"
       fy="60.00076"
       cx="50.00064"
       cy="50.00064"
       r="50.00064"
       gradientUnits="userSpaceOnUse"
       id="radialGradient434"><stop
         style="stop-opacity:1;stop-color:#fdfdff"
         offset="0"
         id="stop436" /><stop
         style="stop-opacity:1;stop-color:#f7f7ff"
         offset="9.00009"
         id="stop438" /><stop
         style="stop-opacity:1;stop-color:#ababb3"
         offset="18.00021"
         id="stop440" /><stop
         style="stop-opacity:1;stop-color:#7a7a80"
         offset="25.00032"
         id="stop442" /><stop
         style="stop-opacity:1;stop-color:#000000"
         offset="50.00064"
         id="stop444" /></radialGradient></defs><sodipodi:namedview
     pagecolor="#ffffff"
     bordercolor="#666666"
     borderopacity="1"
     objecttolerance="10"
     gridtolerance="10"
     guidetolerance="10"
     inkscape:pageopacity="0"
     inkscape:pageshadow="2"
     inkscape:window-width="3737"
     inkscape:window-height="2132"
     id="namedview4"
     showgrid="false"
     inkscape:zoom="6.9031508"
     inkscape:cx="169.09717"
     inkscape:cy="77.637227"
     inkscape:window-x="-9"
     inkscape:window-y="-9"
     inkscape:window-maximized="1"
     inkscape:current-layer="g10" /><g
     id="g10"
     inkscape:groupmode="layer"
     inkscape:label="InterstellarLogo"
     transform="matrix(1.25,0,0,-1.25,0,193.3925)"><g
       id="g12"
       transform="translate(-19.643,89.318)"><g
         id="g14"><g
           id="g16" /><g
           id="g18"><path
             d="m 61.675,28.3468 c 0,2.75118 -2.2302,4.98139 -4.98138,4.98139 -2.75119,0 -4.98139,-2.23021 -4.98139,-4.98139 0,-2.75117 2.2302,-4.98138 4.98139,-4.98138 2.75118,0 4.98138,2.23021 4.98138,4.98138 z"
             style="fill:#000000;fill-opacity:1;fill-rule:nonzero;stroke:none"
             id="path20" /><g
             id="g22"><g
               id="g24"
               clip-path="url(#clipPath26)"><g
                 id="g30"
                 transform="matrix(0.19928,0,0,0.19928,56.69362,28.34679)"><g
                   id="g32"><g
                     id="g34"
                     transform="translate(-50,-50)"><g
                       id="g36"><g
                         id="g38"
                         clip-path="url(#clipPath40)"><path
                           d="M 0,0 100,0 100,100 0,100 0,0 z"
                           style="fill:url(#radialGradient44);stroke:none"
                           id="path56" /></g></g></g></g></g></g></g><path
             d="m 66.61517,28.3468 c 0,5.47959 -4.44197,9.92156 -9.92155,9.92156 -5.47958,0 -9.92157,-4.44197 -9.92157,-9.92156 0,-5.47958 4.44199,-9.92155 9.92157,-9.92155 5.47958,0 9.92155,4.44197 9.92155,9.92155 z"
             style="fill:none;stroke:#000000;stroke-opacity:1;stroke-width:0.3985;stroke-linecap:butt;stroke-linejoin:miter;stroke-miterlimit:10;stroke-dasharray:none"
             id="path58" /><g
             id="g60"><g
               id="g62"><path
                 d="m 58.1837,18.42459 c 3.4e-4,0.82535 -0.66847,1.49469 -1.49382,1.49503 -0.82533,3.3e-4 -1.49468,-0.66846 -1.49501,-1.49381 -3.4e-4,-0.82535 0.66846,-1.49469 1.4938,-1.49502 0.82535,-3.4e-4 1.49469,0.66845 1.49503,1.4938 z"
                 style="fill:#000000;fill-opacity:1;fill-rule:nonzero;stroke:none"
                 id="path64" /><g
                 id="g66"><g
                   id="g68"
                   clip-path="url(#clipPath70)"><g
                     id="g74"
                     transform="matrix(0.05978,0,0,0.05978,56.68927,18.42519)"><g
                       id="g76"><g
                         id="g78"
                         transform="translate(-50,-50)"><g
                           id="g80"><g
                             id="g82"
                             clip-path="url(#clipPath84)"><path
                               d="M 0,0 100,0 100,100 0,100 0,0 z"
                               style="fill:url(#radialGradient88);stroke:none"
                               id="path100" /></g></g></g></g></g></g></g></g></g><path
             d="m 70.867,28.3468 c 0,7.82785 -6.34555,14.1734 -14.17338,14.1734 -7.82785,0 -14.1734,-6.34555 -14.1734,-14.1734 0,-7.82785 6.34555,-14.1734 14.1734,-14.1734 7.82783,0 14.17338,6.34555 14.17338,14.1734 z"
             style="fill:none;stroke:#000000;stroke-opacity:1;stroke-width:0.3985;stroke-linecap:butt;stroke-linejoin:miter;stroke-miterlimit:10;stroke-dasharray:none"
             id="path102" /><g
             id="g104"><g
               id="g106"><path
                 d="m 46.99152,17.58968 c 1.33958,0.97492 1.63516,2.85118 0.66023,4.19076 -0.97493,1.33959 -2.8512,1.63518 -4.19078,0.66025 -1.33959,-0.97495 -1.63517,-2.85119 -0.66023,-4.19078 0.97493,-1.33959 2.85119,-1.63518 4.19078,-0.66023 z"
                 style="fill:#000000;fill-opacity:1;fill-rule:nonzero;stroke:none"
                 id="path108" /><g
                 id="g110"><g
                   id="g112"
                   clip-path="url(#clipPath114)"><g
                     id="g118"
                     transform="matrix(0.13603,0,0,0.13603,45.22624,20.01517)"><g
                       id="g120"><g
                         id="g122"
                         transform="translate(-50,-50)"><g
                           id="g124"><g
                             id="g126"
                             clip-path="url(#clipPath128)"><path
                               d="M 0,0 100,0 100,100 0,100 0,0 z"
                               style="fill:url(#radialGradient132);stroke:none"
                               id="path144" /></g></g></g></g></g></g></g></g></g><path
             d="m 79.37115,28.3468 c 0,12.52461 -10.15293,22.67754 -22.67753,22.67754 -12.52462,0 -22.67754,-10.15293 -22.67754,-22.67754 0,-12.52461 10.15292,-22.67753 22.67754,-22.67753 12.5246,0 22.67753,10.15292 22.67753,22.67753 z"
             style="fill:none;stroke:#000000;stroke-opacity:1;stroke-width:0.3985;stroke-linecap:butt;stroke-linejoin:miter;stroke-miterlimit:10;stroke-dasharray:none"
             id="path146" /><g
             id="g148"><g
               id="g150"><path
                 d="m 78.91623,33.41583 c -1.2292,-0.15373 -2.10101,-1.27479 -1.9473,-2.504 0.15372,-1.2292 1.2748,-2.10103 2.504,-1.94729 1.2292,0.15372 2.10101,1.27479 1.9473,2.50398 -0.15373,1.2292 -1.2748,2.10103 -2.504,1.94731 z"
                 style="fill:#000000;fill-opacity:1;fill-rule:nonzero;stroke:none"
                 id="path152" /><g
                 id="g154"><g
                   id="g156"
                   clip-path="url(#clipPath158)"><g
                     id="g162"
                     transform="matrix(0.09518,0,0,0.09518,79.19456,31.19019)"><g
                       id="g164"><g
                         id="g166"
                         transform="translate(-50,-50)"><g
                           id="g168"><g
                             id="g170"
                             clip-path="url(#clipPath172)"><path
                               d="M 0,0 100,0 100,100 0,100 0,0 z"
                               style="fill:url(#radialGradient176);stroke:none"
                               id="path188" /></g></g></g></g></g></g></g></g></g><path
             d="m 93.54456,28.3468 c 0,20.35246 -16.49848,36.85095 -36.85094,36.85095 -20.35248,0 -36.85095,-16.49849 -36.85095,-36.85095 0,-20.35246 16.49847,-36.85094 36.85095,-36.85094 20.35246,0 36.85094,16.49848 36.85094,36.85094 z"
             style="fill:none;stroke:#000000;stroke-opacity:1;stroke-width:0.3985;stroke-linecap:butt;stroke-linejoin:miter;stroke-miterlimit:10;stroke-dasharray:none"
             id="path190" /><g
             id="g192"><g
               id="g194"><path
                 d="m 25.84872,48.59407 c 0.78141,-0.56868 1.87589,-0.39624 2.44458,0.38518 0.5687,0.78142 0.39624,1.87588 -0.38517,2.44458 -0.78141,0.56869 -1.87589,0.39624 -2.44458,-0.38516 -0.5687,-0.78142 -0.39625,-1.8759 0.38517,-2.4446 z"
                 style="fill:#000000;fill-opacity:1;fill-rule:nonzero;stroke:none"
                 id="path196" /><g
                 id="g198"><g
                   id="g200"
                   clip-path="url(#clipPath202)"><g
                     id="g206"
                     transform="matrix(0.07935,0,0,0.07935,26.87842,50.00896)"><g
                       id="g208"><g
                         id="g210"
                         transform="translate(-50,-50)"><g
                           id="g212"><g
                             id="g214"
                             clip-path="url(#clipPath216)"><path
                               d="M 0,0 100,0 100,100 0,100 0,0 z"
                               style="fill:url(#radialGradient220);stroke:none"
                               id="path232" /></g></g></g></g></g></g></g></g></g><path
             d="m 212.4113,-28.3468 c 0,3.02629 -2.45323,5.47952 -5.47952,5.47952 -3.02628,0 -5.47952,-2.45323 -5.47952,-5.47952 0,-3.0263 2.45324,-5.47952 5.47952,-5.47952 3.02629,0 5.47952,2.45322 5.47952,5.47952 z"
             style="fill:#000000;fill-opacity:1;fill-rule:nonzero;stroke:none"
             id="path234" /><g
             id="g236"><g
               id="g238"
               clip-path="url(#clipPath240)"><g
                 id="g244"
                 transform="matrix(0.21921,0,0,0.21921,206.93178,-28.34679)"><g
                   id="g246"><g
                     id="g248"
                     transform="translate(-50,-50)"><g
                       id="g250"><g
                         id="g252"
                         clip-path="url(#clipPath254)"><path
                           d="M 0,0 100,0 100,100 0,100 0,0 z"
                           style="fill:url(#radialGradient258);stroke:none"
                           id="path270" /></g></g></g></g></g></g></g><path
             d="m 216.89455,-28.3468 c 0,5.50235 -4.46041,9.96277 -9.96277,9.96277 -5.50235,0 -9.96277,-4.46042 -9.96277,-9.96277 0,-5.50235 4.46042,-9.96277 9.96277,-9.96277 5.50236,0 9.96277,4.46042 9.96277,9.96277 z"
             style="fill:none;stroke:#000000;stroke-opacity:1;stroke-width:0.3985;stroke-linecap:butt;stroke-linejoin:miter;stroke-miterlimit:10;stroke-dasharray:none"
             id="path272" /><g
             id="g274"><g
               id="g276"><path
                 d="m 205.74654,-38.44029 c 0.34071,1.04809 -0.23273,2.17396 -1.28084,2.51468 -1.0481,0.34073 -2.17395,-0.23273 -2.51468,-1.28083 -0.34072,-1.04811 0.23273,-2.17396 1.28084,-2.51468 1.04809,-0.34072 2.17394,0.23273 2.51468,1.28083 z"
                 style="fill:#000000;fill-opacity:1;fill-rule:nonzero;stroke:none"
                 id="path278" /><g
                 id="g280"><g
                   id="g282"
                   clip-path="url(#clipPath284)"><g
                     id="g288"
                     transform="matrix(0.08954,0,0,0.08954,203.84879,-37.82335)"><g
                       id="g290"><g
                         id="g292"
                         transform="translate(-50,-50)"><g
                           id="g294"><g
                             id="g296"
                             clip-path="url(#clipPath298)"><path
                               d="M 0,0 100,0 100,100 0,100 0,0 z"
                               style="fill:url(#radialGradient302);stroke:none"
                               id="path314" /></g></g></g></g></g></g></g></g></g><path
             d="m 224.86476,-28.3468 c 0,9.90423 -8.02873,17.93298 -17.93298,17.93298 -9.90424,0 -17.93298,-8.02875 -17.93298,-17.93298 0,-9.90424 8.02874,-17.93299 17.93298,-17.93299 9.90425,0 17.93298,8.02875 17.93298,17.93299 z"
             style="fill:none;stroke:#000000;stroke-opacity:1;stroke-width:0.3985;stroke-linecap:butt;stroke-linejoin:miter;stroke-miterlimit:10;stroke-dasharray:none"
             id="path316" /><g
             id="g318"><g
               id="g320"><path
                 d="m 220.08743,-15.94562 c -1.02699,-0.74746 -1.2536,-2.18596 -0.50615,-3.21295 0.74747,-1.02701 2.18596,-1.25362 3.21297,-0.50615 1.02699,0.74747 1.25362,2.18594 0.50615,3.21295 -0.74747,1.027 -2.18596,1.25362 -3.21297,0.50615 z"
                 style="fill:#000000;fill-opacity:1;fill-rule:nonzero;stroke:none"
                 id="path322" /><g
                 id="g324"><g
                   id="g326"
                   clip-path="url(#clipPath328)"><g
                     id="g332"
                     transform="matrix(0.10428,0,0,0.10428,221.44083,-17.80516)"><g
                       id="g334"><g
                         id="g336"
                         transform="translate(-50,-50)"><g
                           id="g338"><g
                             id="g340"
                             clip-path="url(#clipPath342)"><path
                               d="M 0,0 100,0 100,100 0,100 0,0 z"
                               style="fill:url(#radialGradient346);stroke:none"
                               id="path358" /></g></g></g></g></g></g></g></g></g><path
             d="m 248.7754,-28.3468 c 0,23.10989 -18.73371,41.84361 -41.84362,41.84361 -23.1099,0 -41.84363,-18.73372 -41.84363,-41.84361 0,-23.1099 18.73373,-41.84363 41.84363,-41.84363 23.10991,0 41.84362,18.73373 41.84362,41.84363 z"
             style="fill:none;stroke:#000000;stroke-opacity:1;stroke-width:0.3985;stroke-linecap:butt;stroke-linejoin:miter;stroke-miterlimit:10;stroke-dasharray:none"
             id="path360" /><g
             id="g362"><g
               id="g364"><path
                 d="m 243.13997,-49.70981 c -1.78612,1.2999 -4.28775,0.90573 -5.58765,-0.88037 -1.29989,-1.78612 -0.90573,-4.28775 0.88039,-5.58765 1.7861,-1.29989 4.28773,-0.90573 5.58763,0.88039 1.2999,1.7861 0.90573,4.28774 -0.88037,5.58763 z"
                 style="fill:#000000;fill-opacity:1;fill-rule:nonzero;stroke:none"
                 id="path366" /><g
                 id="g368"><g
                   id="g370"
                   clip-path="url(#clipPath372)"><g
                     id="g376"
                     transform="matrix(0.18137,0,0,0.18137,240.78632,-52.9438)"><g
                       id="g378"><g
                         id="g380"
                         transform="translate(-50,-50)"><g
                           id="g382"><g
                             id="g384"
                             clip-path="url(#clipPath386)"><path
                               d="M 0,0 100,0 100,100 0,100 0,0 z"
                               style="fill:url(#radialGradient390);stroke:none"
                               id="path402" /></g></g></g></g></g></g></g></g></g><path
             d="m 267.70467,-28.3468 c 0,33.56436 -27.20852,60.77287 -60.77289,60.77287 -33.56436,0 -60.77289,-27.20851 -60.77289,-60.77287 0,-33.56438 27.20853,-60.77289 60.77289,-60.77289 33.56437,0 60.77289,27.20851 60.77289,60.77289 z"
             style="fill:none;stroke:#000000;stroke-opacity:1;stroke-width:0.3985;stroke-linecap:butt;stroke-linejoin:miter;stroke-miterlimit:10;stroke-dasharray:none"
             id="path404" /><g
             id="g406"><g
               id="g408"><path
                 d="m 212.96906,32.15088 c -0.1093,-0.8741 0.51064,-1.6713 1.38474,-1.78061 0.8741,-0.1093 1.6713,0.51065 1.78061,1.38475 0.1093,0.8741 -0.51065,1.67131 -1.38475,1.78061 -0.8741,0.1093 -1.67131,-0.51065 -1.7806,-1.38475 z"
                 style="fill:#000000;fill-opacity:1;fill-rule:nonzero;stroke:none"
                 id="path410" /><g
                 id="g412"><g
                   id="g414"
                   clip-path="url(#clipPath416)"><g
                     id="g420"
                     transform="matrix(0.06767,0,0,0.06767,214.55171,31.95294)"><g
                       id="g422"><g
                         id="g424"
                         transform="translate(-50,-50)"><g
                           id="g426"><g
                             id="g428"
                             clip-path="url(#clipPath430)"><path
                               d="M 0,0 100,0 100,100 0,100 0,0 z"
                               style="fill:url(#radialGradient434);stroke:none"
                               id="path446" /></g></g></g></g></g></g></g></g></g><g
             id="g448"><path
               d="m 31.18166,-11.33855 0,22.6771 221.10476,0 0,-22.6771 -221.10476,0 z"
               style="fill:#ffffff;fill-opacity:1;fill-rule:nonzero;stroke:none"
               id="path450" /></g><g
             id="g452"><g
               id="g454"
               transform="translate(32.112,-8.504)"><g
                 id="g456"><g
                   id="g458"
                   transform="translate(-12.469,-80.814)"><text
                     transform="matrix(1,0,0,-1,12.469,80.814)"
                     id="text460"><tspan
                       style="fill:#000000;fill-opacity:1;fill-rule:nonzero;stroke:none;font-family:CMBX12;font-variant:normal;font-weight:normal;font-size:24.7871;writing-mode:lr;-inkscape-font-specification:CMBX12"
                       x="0 10.3857949 32.18852806 51.5819551 69.88474974 90.68360535 106.17554285 125.56896989 143.87176453 160.62536542 177.37896631 198.43560776"
                       y="0"
                       sodipodi:role="line"
                       id="tspan462">INTERSTELLAR</tspan></text>
<g
                     id="g464"
                     transform="translate(12.469,80.814)" /></g></g><g
                 id="g466"
                 transform="translate(-32.112,8.504)" /></g></g></g></g></g></g></svg>